<svg width="153" height="39" viewBox="0 0 153 39" fill="none" xmlns="http://www.w3.org/2000/svg">
<path d="M3.71591 30H0.0227273L10.7045 0.90909H14.3409L25.0227 30H21.3295L12.6364 5.51136H12.4091L3.71591 30ZM5.07955 18.6364H19.9659V21.7614H5.07955V18.6364ZM38.5312 30H29.554V0.90909H38.929C41.7509 0.90909 44.1657 1.49148 46.1733 2.65625C48.1809 3.81155 49.7197 5.47348 50.7898 7.64205C51.8598 9.80114 52.3949 12.3864 52.3949 15.3977C52.3949 18.428 51.8551 21.0369 50.7756 23.2244C49.696 25.4025 48.1241 27.0786 46.0597 28.2528C43.9953 29.4176 41.4858 30 38.5312 30ZM33.0767 26.875H38.304C40.7093 26.875 42.7027 26.411 44.2841 25.483C45.8655 24.5549 47.0445 23.2339 47.821 21.5199C48.5975 19.8059 48.9858 17.7652 48.9858 15.3977C48.9858 13.0492 48.6023 11.0275 47.8352 9.33239C47.0682 7.62784 45.9223 6.32102 44.3977 5.41193C42.8731 4.49337 40.9744 4.03409 38.7017 4.03409H33.0767V26.875ZM67.2812 30H58.304V0.90909H67.679C70.5009 0.90909 72.9157 1.49148 74.9233 2.65625C76.9309 3.81155 78.4697 5.47348 79.5398 7.64205C80.6098 9.80114 81.1449 12.3864 81.1449 15.3977C81.1449 18.428 80.6051 21.0369 79.5256 23.2244C78.446 25.4025 76.8741 27.0786 74.8097 28.2528C72.7453 29.4176 70.2358 30 67.2812 30ZM61.8267 26.875H67.054C69.4593 26.875 71.4527 26.411 73.0341 25.483C74.6155 24.5549 75.7945 23.2339 76.571 21.5199C77.3475 19.8059 77.7358 17.7652 77.7358 15.3977C77.7358 13.0492 77.3523 11.0275 76.5852 9.33239C75.8182 7.62784 74.6723 6.32102 73.1477 5.41193C71.6231 4.49337 69.7244 4.03409 67.4517 4.03409H61.8267V26.875ZM93.0199 30.5114C91.6373 30.5114 90.3826 30.2509 89.2557 29.7301C88.1288 29.1998 87.2339 28.4375 86.571 27.4432C85.9081 26.4394 85.5767 25.2273 85.5767 23.8068C85.5767 22.5568 85.8229 21.5436 86.3153 20.767C86.8078 19.9811 87.4659 19.3655 88.2898 18.9205C89.1136 18.4754 90.0227 18.1439 91.017 17.9261C92.0208 17.6989 93.0294 17.5189 94.0426 17.3864C95.3684 17.2159 96.4432 17.0881 97.267 17.0028C98.1004 16.9081 98.7064 16.7519 99.0852 16.5341C99.4735 16.3163 99.6676 15.9375 99.6676 15.3977V15.2841C99.6676 13.8826 99.2841 12.7936 98.517 12.017C97.7595 11.2405 96.6089 10.8523 95.0653 10.8523C93.465 10.8523 92.2102 11.2027 91.3011 11.9034C90.392 12.6042 89.7528 13.3523 89.3835 14.1477L86.2017 13.0114C86.7699 11.6856 87.5275 10.6534 88.4744 9.91477C89.4309 9.16667 90.4725 8.64583 91.5994 8.35227C92.7358 8.04924 93.8532 7.89773 94.9517 7.89773C95.6525 7.89773 96.4574 7.98295 97.3665 8.15341C98.285 8.31439 99.1705 8.65057 100.023 9.16193C100.884 9.6733 101.599 10.4451 102.168 11.4773C102.736 12.5095 103.02 13.892 103.02 15.625V30H99.6676V27.0455H99.4972C99.2699 27.5189 98.8911 28.0256 98.3608 28.5653C97.8305 29.1051 97.125 29.5644 96.2443 29.9432C95.3636 30.322 94.2888 30.5114 93.0199 30.5114ZM93.5312 27.5C94.857 27.5 95.9744 27.2396 96.8835 26.7188C97.8021 26.1979 98.4934 25.5256 98.9574 24.7017C99.4309 23.8778 99.6676 23.0114 99.6676 22.1023V19.0341C99.5256 19.2045 99.2131 19.3608 98.7301 19.5028C98.2566 19.6354 97.7074 19.7538 97.0824 19.858C96.4669 19.9527 95.8655 20.0379 95.2784 20.1136C94.7008 20.1799 94.232 20.2367 93.8722 20.2841C93.0009 20.3977 92.1866 20.5824 91.429 20.8381C90.6809 21.0843 90.0748 21.4583 89.6108 21.9602C89.1563 22.4527 88.929 23.125 88.929 23.9773C88.929 25.142 89.3598 26.0227 90.2216 26.6193C91.0928 27.2064 92.196 27.5 93.5312 27.5ZM109.138 38.1818V8.18182H112.377V11.6477H112.775C113.021 11.2689 113.362 10.786 113.798 10.1989C114.243 9.60227 114.877 9.07197 115.701 8.60795C116.534 8.13447 117.661 7.89773 119.082 7.89773C120.919 7.89773 122.538 8.35701 123.94 9.27557C125.341 10.1941 126.435 11.4962 127.221 13.1818C128.007 14.8674 128.4 16.8561 128.4 19.1477C128.4 21.4583 128.007 23.4612 127.221 25.1562C126.435 26.8419 125.346 28.1487 123.954 29.0767C122.562 29.9953 120.957 30.4545 119.138 30.4545C117.737 30.4545 116.615 30.2225 115.772 29.7585C114.929 29.285 114.281 28.75 113.826 28.1534C113.371 27.5473 113.021 27.0455 112.775 26.6477H112.491V38.1818H109.138ZM112.434 19.0909C112.434 20.7386 112.675 22.1922 113.158 23.4517C113.641 24.7017 114.347 25.6818 115.275 26.392C116.203 27.0928 117.339 27.4432 118.684 27.4432C120.085 27.4432 121.255 27.0739 122.192 26.3352C123.139 25.5871 123.85 24.5833 124.323 23.3239C124.806 22.0549 125.048 20.6439 125.048 19.0909C125.048 17.5568 124.811 16.1742 124.337 14.9432C123.873 13.7027 123.168 12.7225 122.221 12.0028C121.283 11.2737 120.104 10.9091 118.684 10.9091C117.32 10.9091 116.174 11.2547 115.246 11.946C114.318 12.6278 113.618 13.5843 113.144 14.8153C112.671 16.0369 112.434 17.4621 112.434 19.0909ZM133.513 38.1818V8.18182H136.752V11.6477H137.15C137.396 11.2689 137.737 10.786 138.173 10.1989C138.618 9.60227 139.252 9.07197 140.076 8.60795C140.909 8.13447 142.036 7.89773 143.457 7.89773C145.294 7.89773 146.913 8.35701 148.315 9.27557C149.716 10.1941 150.81 11.4962 151.596 13.1818C152.382 14.8674 152.775 16.8561 152.775 19.1477C152.775 21.4583 152.382 23.4612 151.596 25.1562C150.81 26.8419 149.721 28.1487 148.329 29.0767C146.937 29.9953 145.332 30.4545 143.513 30.4545C142.112 30.4545 140.99 30.2225 140.147 29.7585C139.304 29.285 138.656 28.75 138.201 28.1534C137.746 27.5473 137.396 27.0455 137.15 26.6477H136.866V38.1818H133.513ZM136.809 19.0909C136.809 20.7386 137.05 22.1922 137.533 23.4517C138.016 24.7017 138.722 25.6818 139.65 26.392C140.578 27.0928 141.714 27.4432 143.059 27.4432C144.46 27.4432 145.63 27.0739 146.567 26.3352C147.514 25.5871 148.225 24.5833 148.698 23.3239C149.181 22.0549 149.423 20.6439 149.423 19.0909C149.423 17.5568 149.186 16.1742 148.712 14.9432C148.248 13.7027 147.543 12.7225 146.596 12.0028C145.658 11.2737 144.479 10.9091 143.059 10.9091C141.695 10.9091 140.549 11.2547 139.621 11.946C138.693 12.6278 137.993 13.5843 137.519 14.8153C137.046 16.0369 136.809 17.4621 136.809 19.0909Z" fill="black"/>
<ellipse cx="119" cy="19" rx="7" ry="9" fill="white"/>
<ellipse cx="115" cy="19.5" rx="3" ry="7.5" fill="#705858"/>
<ellipse cx="114" cy="19.5" rx="2" ry="3.5" fill="black"/>
<ellipse cx="144" cy="19" rx="7" ry="9" fill="white"/>
<ellipse cx="139.5" cy="19.5" rx="3.5" ry="7.5" fill="#705858"/>
<ellipse cx="139" cy="19.5" rx="2" ry="3.5" fill="black"/>
</svg>
